<?xml version="1.0" encoding="utf-8" standalone="no"?>
<!DOCTYPE svg PUBLIC "-//W3C//DTD SVG 1.1//EN"
  "http://www.w3.org/Graphics/SVG/1.1/DTD/svg11.dtd">
<svg xmlns:xlink="http://www.w3.org/1999/xlink" width="1152pt" height="576pt" viewBox="0 0 1152 576" xmlns="http://www.w3.org/2000/svg" version="1.1">
 <metadata>
  <rdf:RDF xmlns:dc="http://purl.org/dc/elements/1.1/" xmlns:cc="http://creativecommons.org/ns#" xmlns:rdf="http://www.w3.org/1999/02/22-rdf-syntax-ns#">
   <cc:Work>
    <dc:type rdf:resource="http://purl.org/dc/dcmitype/StillImage"/>
    <dc:date>2024-05-31T18:58:31.347622</dc:date>
    <dc:format>image/svg+xml</dc:format>
    <dc:creator>
     <cc:Agent>
      <dc:title>Matplotlib v3.7.5, https://matplotlib.org/</dc:title>
     </cc:Agent>
    </dc:creator>
   </cc:Work>
  </rdf:RDF>
 </metadata>
 <defs>
  <style type="text/css">*{stroke-linejoin: round; stroke-linecap: butt}</style>
 </defs>
 <g id="figure_1">
  <g id="patch_1">
   <path d="M 0 576 
L 1152 576 
L 1152 0 
L 0 0 
z
" style="fill: #ffffff"/>
  </g>
  <g id="axes_1">
   <g id="patch_2">
    <path d="M 64.82 529.72 
L 568.503781 529.72 
L 568.503781 27.6 
L 64.82 27.6 
z
" style="fill: #ffffff"/>
   </g>
   <g id="matplotlib.axis_1">
    <g id="xtick_1">
     <g id="line2d_1">
      <path d="M 129.341476 529.72 
L 129.341476 27.6 
" clip-path="url(#p274e038186)" style="fill: none; stroke: #cccccc; stroke-width: 0.8; stroke-linecap: round"/>
     </g>
     <g id="text_1">
      <!-- 2 -->
      <g style="fill: #262626" transform="translate(126.160226 544.318437) scale(0.1 -0.1)">
       <defs>
        <path id="DejaVuSans-32" d="M 1228 531 
L 3431 531 
L 3431 0 
L 469 0 
L 469 531 
Q 828 903 1448 1529 
Q 2069 2156 2228 2338 
Q 2531 2678 2651 2914 
Q 2772 3150 2772 3378 
Q 2772 3750 2511 3984 
Q 2250 4219 1831 4219 
Q 1534 4219 1204 4116 
Q 875 4013 500 3803 
L 500 4441 
Q 881 4594 1212 4672 
Q 1544 4750 1819 4750 
Q 2544 4750 2975 4387 
Q 3406 4025 3406 3419 
Q 3406 3131 3298 2873 
Q 3191 2616 2906 2266 
Q 2828 2175 2409 1742 
Q 1991 1309 1228 531 
z
" transform="scale(0.015625)"/>
       </defs>
       <use xlink:href="#DejaVuSans-32"/>
      </g>
     </g>
    </g>
    <g id="xtick_2">
     <g id="line2d_2">
      <path d="M 212.594994 529.72 
L 212.594994 27.6 
" clip-path="url(#p274e038186)" style="fill: none; stroke: #cccccc; stroke-width: 0.8; stroke-linecap: round"/>
     </g>
     <g id="text_2">
      <!-- 4 -->
      <g style="fill: #262626" transform="translate(209.413744 544.318437) scale(0.1 -0.1)">
       <defs>
        <path id="DejaVuSans-34" d="M 2419 4116 
L 825 1625 
L 2419 1625 
L 2419 4116 
z
M 2253 4666 
L 3047 4666 
L 3047 1625 
L 3713 1625 
L 3713 1100 
L 3047 1100 
L 3047 0 
L 2419 0 
L 2419 1100 
L 313 1100 
L 313 1709 
L 2253 4666 
z
" transform="scale(0.015625)"/>
       </defs>
       <use xlink:href="#DejaVuSans-34"/>
      </g>
     </g>
    </g>
    <g id="xtick_3">
     <g id="line2d_3">
      <path d="M 295.848511 529.72 
L 295.848511 27.6 
" clip-path="url(#p274e038186)" style="fill: none; stroke: #cccccc; stroke-width: 0.8; stroke-linecap: round"/>
     </g>
     <g id="text_3">
      <!-- 6 -->
      <g style="fill: #262626" transform="translate(292.667261 544.318437) scale(0.1 -0.1)">
       <defs>
        <path id="DejaVuSans-36" d="M 2113 2584 
Q 1688 2584 1439 2293 
Q 1191 2003 1191 1497 
Q 1191 994 1439 701 
Q 1688 409 2113 409 
Q 2538 409 2786 701 
Q 3034 994 3034 1497 
Q 3034 2003 2786 2293 
Q 2538 2584 2113 2584 
z
M 3366 4563 
L 3366 3988 
Q 3128 4100 2886 4159 
Q 2644 4219 2406 4219 
Q 1781 4219 1451 3797 
Q 1122 3375 1075 2522 
Q 1259 2794 1537 2939 
Q 1816 3084 2150 3084 
Q 2853 3084 3261 2657 
Q 3669 2231 3669 1497 
Q 3669 778 3244 343 
Q 2819 -91 2113 -91 
Q 1303 -91 875 529 
Q 447 1150 447 2328 
Q 447 3434 972 4092 
Q 1497 4750 2381 4750 
Q 2619 4750 2861 4703 
Q 3103 4656 3366 4563 
z
" transform="scale(0.015625)"/>
       </defs>
       <use xlink:href="#DejaVuSans-36"/>
      </g>
     </g>
    </g>
    <g id="xtick_4">
     <g id="line2d_4">
      <path d="M 379.102029 529.72 
L 379.102029 27.6 
" clip-path="url(#p274e038186)" style="fill: none; stroke: #cccccc; stroke-width: 0.8; stroke-linecap: round"/>
     </g>
     <g id="text_4">
      <!-- 8 -->
      <g style="fill: #262626" transform="translate(375.920779 544.318437) scale(0.1 -0.1)">
       <defs>
        <path id="DejaVuSans-38" d="M 2034 2216 
Q 1584 2216 1326 1975 
Q 1069 1734 1069 1313 
Q 1069 891 1326 650 
Q 1584 409 2034 409 
Q 2484 409 2743 651 
Q 3003 894 3003 1313 
Q 3003 1734 2745 1975 
Q 2488 2216 2034 2216 
z
M 1403 2484 
Q 997 2584 770 2862 
Q 544 3141 544 3541 
Q 544 4100 942 4425 
Q 1341 4750 2034 4750 
Q 2731 4750 3128 4425 
Q 3525 4100 3525 3541 
Q 3525 3141 3298 2862 
Q 3072 2584 2669 2484 
Q 3125 2378 3379 2068 
Q 3634 1759 3634 1313 
Q 3634 634 3220 271 
Q 2806 -91 2034 -91 
Q 1263 -91 848 271 
Q 434 634 434 1313 
Q 434 1759 690 2068 
Q 947 2378 1403 2484 
z
M 1172 3481 
Q 1172 3119 1398 2916 
Q 1625 2713 2034 2713 
Q 2441 2713 2670 2916 
Q 2900 3119 2900 3481 
Q 2900 3844 2670 4047 
Q 2441 4250 2034 4250 
Q 1625 4250 1398 4047 
Q 1172 3844 1172 3481 
z
" transform="scale(0.015625)"/>
       </defs>
       <use xlink:href="#DejaVuSans-38"/>
      </g>
     </g>
    </g>
    <g id="xtick_5">
     <g id="line2d_5">
      <path d="M 462.355546 529.72 
L 462.355546 27.6 
" clip-path="url(#p274e038186)" style="fill: none; stroke: #cccccc; stroke-width: 0.8; stroke-linecap: round"/>
     </g>
     <g id="text_5">
      <!-- 10 -->
      <g style="fill: #262626" transform="translate(455.993046 544.318437) scale(0.1 -0.1)">
       <defs>
        <path id="DejaVuSans-31" d="M 794 531 
L 1825 531 
L 1825 4091 
L 703 3866 
L 703 4441 
L 1819 4666 
L 2450 4666 
L 2450 531 
L 3481 531 
L 3481 0 
L 794 0 
L 794 531 
z
" transform="scale(0.015625)"/>
        <path id="DejaVuSans-30" d="M 2034 4250 
Q 1547 4250 1301 3770 
Q 1056 3291 1056 2328 
Q 1056 1369 1301 889 
Q 1547 409 2034 409 
Q 2525 409 2770 889 
Q 3016 1369 3016 2328 
Q 3016 3291 2770 3770 
Q 2525 4250 2034 4250 
z
M 2034 4750 
Q 2819 4750 3233 4129 
Q 3647 3509 3647 2328 
Q 3647 1150 3233 529 
Q 2819 -91 2034 -91 
Q 1250 -91 836 529 
Q 422 1150 422 2328 
Q 422 3509 836 4129 
Q 1250 4750 2034 4750 
z
" transform="scale(0.015625)"/>
       </defs>
       <use xlink:href="#DejaVuSans-31"/>
       <use xlink:href="#DejaVuSans-30" x="63.623047"/>
      </g>
     </g>
    </g>
    <g id="xtick_6">
     <g id="line2d_6">
      <path d="M 545.609064 529.72 
L 545.609064 27.6 
" clip-path="url(#p274e038186)" style="fill: none; stroke: #cccccc; stroke-width: 0.8; stroke-linecap: round"/>
     </g>
     <g id="text_6">
      <!-- 12 -->
      <g style="fill: #262626" transform="translate(539.246564 544.318437) scale(0.1 -0.1)">
       <use xlink:href="#DejaVuSans-31"/>
       <use xlink:href="#DejaVuSans-32" x="63.623047"/>
      </g>
     </g>
    </g>
    <g id="text_7">
     <!-- 组合编号 -->
     <g style="fill: #262626" transform="translate(288.66189 561.062188) scale(0.14 -0.14)">
      <defs>
       <path id="DroidSansFallback-7ec4" d="M 2125 4175 
L 2575 4000 
Q 1950 2675 1150 1775 
Q 1775 1925 2300 2100 
L 2425 1700 
Q 1575 1375 525 1200 
L 375 1625 
Q 925 2150 1425 2950 
Q 1000 2850 525 2800 
L 425 3275 
Q 1000 3975 1375 5175 
L 1850 5025 
Q 1500 3975 975 3300 
Q 1375 3325 1700 3375 
L 2125 4175 
z
M 2425 975 
L 2525 525 
Q 1625 200 525 -50 
L 325 475 
Q 1500 700 2425 975 
z
M 5650 4950 
L 5650 125 
L 6125 125 
L 6125 -350 
L 2525 -350 
L 2525 125 
L 3075 125 
L 3075 4950 
L 5650 4950 
z
M 3550 3325 
L 5175 3325 
L 5175 4500 
L 3550 4500 
L 3550 3325 
z
M 3550 1725 
L 5175 1725 
L 5175 2900 
L 3550 2900 
L 3550 1725 
z
M 3550 125 
L 5175 125 
L 5175 1275 
L 3550 1275 
L 3550 125 
z
" transform="scale(0.015625)"/>
       <path id="DroidSansFallback-5408" d="M 3150 5250 
L 3675 5100 
Q 3600 5000 3500 4900 
Q 4750 3900 6125 3350 
L 5825 2850 
Q 4500 3425 3200 4575 
Q 2025 3475 525 2800 
L 250 3250 
Q 2275 4200 3150 5250 
z
M 1300 3100 
L 5075 3100 
L 5075 2600 
L 1300 2600 
L 1300 3100 
z
M 5300 1925 
L 5300 -575 
L 4800 -575 
L 4800 -175 
L 1550 -175 
L 1550 -575 
L 1050 -575 
L 1050 1925 
L 5300 1925 
z
M 1550 300 
L 4800 300 
L 4800 1450 
L 1550 1450 
L 1550 300 
z
" transform="scale(0.015625)"/>
       <path id="DroidSansFallback-7f16" d="M 2000 4150 
L 2450 3975 
Q 1825 2575 1075 1750 
Q 1675 1900 2150 2075 
L 2275 1700 
Q 1475 1375 525 1200 
L 375 1600 
Q 900 2150 1375 2950 
Q 950 2875 525 2825 
L 425 3275 
Q 950 4000 1300 5175 
L 1775 5025 
Q 1450 3925 950 3300 
Q 1325 3325 1600 3375 
Q 1825 3750 2000 4150 
z
M 2175 950 
L 2275 500 
Q 1475 175 525 -50 
L 325 475 
Q 1350 700 2175 950 
z
M 4000 4525 
L 3800 5050 
L 4275 5200 
Q 4425 4900 4525 4525 
L 5900 4525 
L 5900 2975 
L 3100 2975 
L 3100 2100 
Q 3100 725 2550 -550 
L 2150 -250 
Q 2625 750 2625 2100 
L 2625 4525 
L 4000 4525 
z
M 3100 3425 
L 5425 3425 
L 5425 4075 
L 3100 4075 
L 3100 3425 
z
M 5975 2475 
L 5975 -50 
Q 5975 -300 5837 -437 
Q 5700 -575 5425 -575 
Q 5275 -575 5100 -525 
L 5000 -100 
Q 5275 -150 5400 -150 
Q 5500 -150 5500 75 
L 5500 900 
L 5200 900 
L 5200 25 
L 4775 25 
L 4775 900 
L 4450 900 
L 4450 25 
L 4000 25 
L 4000 900 
L 3725 900 
L 3725 -600 
L 3225 -600 
L 3225 2475 
L 5975 2475 
z
M 3725 1325 
L 4000 1325 
L 4000 2025 
L 3725 2025 
L 3725 1325 
z
M 4450 2025 
L 4450 1325 
L 4775 1325 
L 4775 2025 
L 4450 2025 
z
M 5200 2025 
L 5200 1325 
L 5500 1325 
L 5500 2025 
L 5200 2025 
z
" transform="scale(0.015625)"/>
       <path id="DroidSansFallback-53f7" d="M 1050 4950 
L 5200 4950 
L 5200 3225 
L 1050 3225 
L 1050 4950 
z
M 1550 3700 
L 4700 3700 
L 4700 4475 
L 1550 4475 
L 1550 3700 
z
M 325 2775 
L 6075 2775 
L 6075 2300 
L 2025 2300 
L 1825 1500 
L 5350 1500 
Q 5275 100 5075 -237 
Q 4875 -575 4450 -575 
Q 3850 -575 3125 -525 
L 3025 -25 
Q 3825 -75 4400 -75 
Q 4575 -75 4662 87 
Q 4750 250 4800 1025 
L 1150 1025 
L 1500 2300 
L 325 2300 
L 325 2775 
z
" transform="scale(0.015625)"/>
      </defs>
      <use xlink:href="#DroidSansFallback-7ec4"/>
      <use xlink:href="#DroidSansFallback-5408" x="100"/>
      <use xlink:href="#DroidSansFallback-7f16" x="200"/>
      <use xlink:href="#DroidSansFallback-53f7" x="300"/>
     </g>
    </g>
   </g>
   <g id="matplotlib.axis_2">
    <g id="ytick_1">
     <g id="line2d_7">
      <path d="M 64.82 496.436807 
L 568.503781 496.436807 
" clip-path="url(#p274e038186)" style="fill: none; stroke: #cccccc; stroke-width: 0.8; stroke-linecap: round"/>
     </g>
     <g id="text_8">
      <!-- 0.682 -->
      <g style="fill: #262626" transform="translate(29.191875 500.236026) scale(0.1 -0.1)">
       <defs>
        <path id="DejaVuSans-2e" d="M 684 794 
L 1344 794 
L 1344 0 
L 684 0 
L 684 794 
z
" transform="scale(0.015625)"/>
       </defs>
       <use xlink:href="#DejaVuSans-30"/>
       <use xlink:href="#DejaVuSans-2e" x="63.623047"/>
       <use xlink:href="#DejaVuSans-36" x="95.410156"/>
       <use xlink:href="#DejaVuSans-38" x="159.033203"/>
       <use xlink:href="#DejaVuSans-32" x="222.65625"/>
      </g>
     </g>
    </g>
    <g id="ytick_2">
     <g id="line2d_8">
      <path d="M 64.82 433.951139 
L 568.503781 433.951139 
" clip-path="url(#p274e038186)" style="fill: none; stroke: #cccccc; stroke-width: 0.8; stroke-linecap: round"/>
     </g>
     <g id="text_9">
      <!-- 0.684 -->
      <g style="fill: #262626" transform="translate(29.191875 437.750358) scale(0.1 -0.1)">
       <use xlink:href="#DejaVuSans-30"/>
       <use xlink:href="#DejaVuSans-2e" x="63.623047"/>
       <use xlink:href="#DejaVuSans-36" x="95.410156"/>
       <use xlink:href="#DejaVuSans-38" x="159.033203"/>
       <use xlink:href="#DejaVuSans-34" x="222.65625"/>
      </g>
     </g>
    </g>
    <g id="ytick_3">
     <g id="line2d_9">
      <path d="M 64.82 371.465471 
L 568.503781 371.465471 
" clip-path="url(#p274e038186)" style="fill: none; stroke: #cccccc; stroke-width: 0.8; stroke-linecap: round"/>
     </g>
     <g id="text_10">
      <!-- 0.686 -->
      <g style="fill: #262626" transform="translate(29.191875 375.26469) scale(0.1 -0.1)">
       <use xlink:href="#DejaVuSans-30"/>
       <use xlink:href="#DejaVuSans-2e" x="63.623047"/>
       <use xlink:href="#DejaVuSans-36" x="95.410156"/>
       <use xlink:href="#DejaVuSans-38" x="159.033203"/>
       <use xlink:href="#DejaVuSans-36" x="222.65625"/>
      </g>
     </g>
    </g>
    <g id="ytick_4">
     <g id="line2d_10">
      <path d="M 64.82 308.979803 
L 568.503781 308.979803 
" clip-path="url(#p274e038186)" style="fill: none; stroke: #cccccc; stroke-width: 0.8; stroke-linecap: round"/>
     </g>
     <g id="text_11">
      <!-- 0.688 -->
      <g style="fill: #262626" transform="translate(29.191875 312.779022) scale(0.1 -0.1)">
       <use xlink:href="#DejaVuSans-30"/>
       <use xlink:href="#DejaVuSans-2e" x="63.623047"/>
       <use xlink:href="#DejaVuSans-36" x="95.410156"/>
       <use xlink:href="#DejaVuSans-38" x="159.033203"/>
       <use xlink:href="#DejaVuSans-38" x="222.65625"/>
      </g>
     </g>
    </g>
    <g id="ytick_5">
     <g id="line2d_11">
      <path d="M 64.82 246.494135 
L 568.503781 246.494135 
" clip-path="url(#p274e038186)" style="fill: none; stroke: #cccccc; stroke-width: 0.8; stroke-linecap: round"/>
     </g>
     <g id="text_12">
      <!-- 0.690 -->
      <g style="fill: #262626" transform="translate(29.191875 250.293354) scale(0.1 -0.1)">
       <defs>
        <path id="DejaVuSans-39" d="M 703 97 
L 703 672 
Q 941 559 1184 500 
Q 1428 441 1663 441 
Q 2288 441 2617 861 
Q 2947 1281 2994 2138 
Q 2813 1869 2534 1725 
Q 2256 1581 1919 1581 
Q 1219 1581 811 2004 
Q 403 2428 403 3163 
Q 403 3881 828 4315 
Q 1253 4750 1959 4750 
Q 2769 4750 3195 4129 
Q 3622 3509 3622 2328 
Q 3622 1225 3098 567 
Q 2575 -91 1691 -91 
Q 1453 -91 1209 -44 
Q 966 3 703 97 
z
M 1959 2075 
Q 2384 2075 2632 2365 
Q 2881 2656 2881 3163 
Q 2881 3666 2632 3958 
Q 2384 4250 1959 4250 
Q 1534 4250 1286 3958 
Q 1038 3666 1038 3163 
Q 1038 2656 1286 2365 
Q 1534 2075 1959 2075 
z
" transform="scale(0.015625)"/>
       </defs>
       <use xlink:href="#DejaVuSans-30"/>
       <use xlink:href="#DejaVuSans-2e" x="63.623047"/>
       <use xlink:href="#DejaVuSans-36" x="95.410156"/>
       <use xlink:href="#DejaVuSans-39" x="159.033203"/>
       <use xlink:href="#DejaVuSans-30" x="222.65625"/>
      </g>
     </g>
    </g>
    <g id="ytick_6">
     <g id="line2d_12">
      <path d="M 64.82 184.008468 
L 568.503781 184.008468 
" clip-path="url(#p274e038186)" style="fill: none; stroke: #cccccc; stroke-width: 0.8; stroke-linecap: round"/>
     </g>
     <g id="text_13">
      <!-- 0.692 -->
      <g style="fill: #262626" transform="translate(29.191875 187.807686) scale(0.1 -0.1)">
       <use xlink:href="#DejaVuSans-30"/>
       <use xlink:href="#DejaVuSans-2e" x="63.623047"/>
       <use xlink:href="#DejaVuSans-36" x="95.410156"/>
       <use xlink:href="#DejaVuSans-39" x="159.033203"/>
       <use xlink:href="#DejaVuSans-32" x="222.65625"/>
      </g>
     </g>
    </g>
    <g id="ytick_7">
     <g id="line2d_13">
      <path d="M 64.82 121.5228 
L 568.503781 121.5228 
" clip-path="url(#p274e038186)" style="fill: none; stroke: #cccccc; stroke-width: 0.8; stroke-linecap: round"/>
     </g>
     <g id="text_14">
      <!-- 0.694 -->
      <g style="fill: #262626" transform="translate(29.191875 125.322018) scale(0.1 -0.1)">
       <use xlink:href="#DejaVuSans-30"/>
       <use xlink:href="#DejaVuSans-2e" x="63.623047"/>
       <use xlink:href="#DejaVuSans-36" x="95.410156"/>
       <use xlink:href="#DejaVuSans-39" x="159.033203"/>
       <use xlink:href="#DejaVuSans-34" x="222.65625"/>
      </g>
     </g>
    </g>
    <g id="ytick_8">
     <g id="line2d_14">
      <path d="M 64.82 59.037132 
L 568.503781 59.037132 
" clip-path="url(#p274e038186)" style="fill: none; stroke: #cccccc; stroke-width: 0.8; stroke-linecap: round"/>
     </g>
     <g id="text_15">
      <!-- 0.696 -->
      <g style="fill: #262626" transform="translate(29.191875 62.83635) scale(0.1 -0.1)">
       <use xlink:href="#DejaVuSans-30"/>
       <use xlink:href="#DejaVuSans-2e" x="63.623047"/>
       <use xlink:href="#DejaVuSans-36" x="95.410156"/>
       <use xlink:href="#DejaVuSans-39" x="159.033203"/>
       <use xlink:href="#DejaVuSans-36" x="222.65625"/>
      </g>
     </g>
    </g>
    <g id="text_16">
     <!-- R² 值 -->
     <g style="fill: #262626" transform="translate(21.855937 293.945156) rotate(-90) scale(0.14 -0.14)">
      <defs>
       <path id="DroidSansFallback-52" d="M 1200 1900 
L 1200 0 
L 625 0 
L 625 4575 
L 1725 4575 
Q 2550 4575 2950 4250 
Q 3350 3925 3350 3275 
Q 3350 2375 2450 2050 
L 3700 0 
L 3025 0 
L 1925 1900 
L 1200 1900 
z
M 1200 2375 
L 1725 2375 
Q 2250 2375 2500 2600 
Q 2750 2825 2750 3250 
Q 2750 3675 2512 3875 
Q 2275 4075 1700 4075 
L 1200 4075 
L 1200 2375 
z
" transform="scale(0.015625)"/>
       <path id="DroidSansFallback-b2" d="M 1950 1825 
L 150 1825 
L 150 2175 
L 800 2900 
Q 1200 3325 1287 3487 
Q 1375 3650 1375 3850 
Q 1375 4050 1287 4150 
Q 1200 4250 1000 4250 
Q 750 4250 425 3975 
L 175 4275 
Q 575 4625 1025 4625 
Q 1400 4625 1612 4425 
Q 1825 4225 1825 3875 
Q 1825 3625 1712 3400 
Q 1600 3175 1175 2725 
L 700 2225 
L 1950 2225 
L 1950 1825 
z
" transform="scale(0.015625)"/>
       <path id="DroidSansFallback-20" transform="scale(0.015625)"/>
       <path id="DroidSansFallback-503c" d="M 1575 5175 
L 2075 5025 
Q 1875 4450 1625 3875 
L 1625 -575 
L 1125 -575 
L 1125 2925 
Q 825 2450 500 2050 
L 250 2550 
Q 1175 3800 1575 5175 
z
M 2250 4575 
L 3800 4575 
L 3800 5150 
L 4300 5150 
L 4300 4575 
L 5875 4575 
L 5875 4125 
L 4300 4125 
L 4300 3550 
L 5575 3550 
L 5575 75 
L 6050 75 
L 6050 -350 
L 1925 -350 
L 1925 75 
L 2625 75 
L 2625 3550 
L 3800 3550 
L 3800 4125 
L 2250 4125 
L 2250 4575 
z
M 3125 2650 
L 5075 2650 
L 5075 3125 
L 3125 3125 
L 3125 2650 
z
M 3125 1775 
L 5075 1775 
L 5075 2275 
L 3125 2275 
L 3125 1775 
z
M 3125 925 
L 5075 925 
L 5075 1400 
L 3125 1400 
L 3125 925 
z
M 3125 75 
L 5075 75 
L 5075 550 
L 3125 550 
L 3125 75 
z
" transform="scale(0.015625)"/>
      </defs>
      <use xlink:href="#DroidSansFallback-52"/>
      <use xlink:href="#DroidSansFallback-b2" x="58.984375"/>
      <use xlink:href="#DroidSansFallback-20" x="92.1875"/>
      <use xlink:href="#DroidSansFallback-503c" x="118.359375"/>
     </g>
    </g>
   </g>
   <g id="line2d_15">
    <path d="M 87.714717 371.176286 
L 129.341476 307.688562 
L 170.968235 506.896364 
L 212.594994 318.536721 
L 254.221752 119.020232 
L 295.848511 121.78268 
L 337.47527 114.359147 
L 379.102029 50.423636 
L 420.728787 376.425084 
L 462.355546 308.268968 
L 503.982305 373.057813 
L 545.609064 200.910962 
" clip-path="url(#p274e038186)" style="fill: none; stroke: #0000ff; stroke-width: 1.5; stroke-linecap: round"/>
    <defs>
     <path id="mf03fb30d08" d="M 0 3 
C 0.795609 3 1.55874 2.683901 2.12132 2.12132 
C 2.683901 1.55874 3 0.795609 3 0 
C 3 -0.795609 2.683901 -1.55874 2.12132 -2.12132 
C 1.55874 -2.683901 0.795609 -3 0 -3 
C -0.795609 -3 -1.55874 -2.683901 -2.12132 -2.12132 
C -2.683901 -1.55874 -3 -0.795609 -3 0 
C -3 0.795609 -2.683901 1.55874 -2.12132 2.12132 
C -1.55874 2.683901 -0.795609 3 0 3 
z
" style="stroke: #0000ff"/>
    </defs>
    <g clip-path="url(#p274e038186)">
     <use xlink:href="#mf03fb30d08" x="87.714717" y="371.176286" style="fill: #0000ff; stroke: #0000ff"/>
     <use xlink:href="#mf03fb30d08" x="129.341476" y="307.688562" style="fill: #0000ff; stroke: #0000ff"/>
     <use xlink:href="#mf03fb30d08" x="170.968235" y="506.896364" style="fill: #0000ff; stroke: #0000ff"/>
     <use xlink:href="#mf03fb30d08" x="212.594994" y="318.536721" style="fill: #0000ff; stroke: #0000ff"/>
     <use xlink:href="#mf03fb30d08" x="254.221752" y="119.020232" style="fill: #0000ff; stroke: #0000ff"/>
     <use xlink:href="#mf03fb30d08" x="295.848511" y="121.78268" style="fill: #0000ff; stroke: #0000ff"/>
     <use xlink:href="#mf03fb30d08" x="337.47527" y="114.359147" style="fill: #0000ff; stroke: #0000ff"/>
     <use xlink:href="#mf03fb30d08" x="379.102029" y="50.423636" style="fill: #0000ff; stroke: #0000ff"/>
     <use xlink:href="#mf03fb30d08" x="420.728787" y="376.425084" style="fill: #0000ff; stroke: #0000ff"/>
     <use xlink:href="#mf03fb30d08" x="462.355546" y="308.268968" style="fill: #0000ff; stroke: #0000ff"/>
     <use xlink:href="#mf03fb30d08" x="503.982305" y="373.057813" style="fill: #0000ff; stroke: #0000ff"/>
     <use xlink:href="#mf03fb30d08" x="545.609064" y="200.910962" style="fill: #0000ff; stroke: #0000ff"/>
    </g>
   </g>
   <g id="patch_3">
    <path d="M 64.82 529.72 
L 64.82 27.6 
" style="fill: none; stroke: #cccccc; stroke-width: 0.8; stroke-linejoin: miter; stroke-linecap: square"/>
   </g>
   <g id="patch_4">
    <path d="M 568.503781 529.72 
L 568.503781 27.6 
" style="fill: none; stroke: #cccccc; stroke-width: 0.8; stroke-linejoin: miter; stroke-linecap: square"/>
   </g>
   <g id="patch_5">
    <path d="M 64.82 529.72 
L 568.503781 529.72 
" style="fill: none; stroke: #cccccc; stroke-width: 0.8; stroke-linejoin: miter; stroke-linecap: square"/>
   </g>
   <g id="patch_6">
    <path d="M 64.82 27.6 
L 568.503781 27.6 
" style="fill: none; stroke: #cccccc; stroke-width: 0.8; stroke-linejoin: miter; stroke-linecap: square"/>
   </g>
   <g id="text_17">
    <!-- 0.68601 -->
    <g style="fill: #262626" transform="translate(67.038155 361.176286) scale(0.1 -0.1)">
     <use xlink:href="#DejaVuSans-30"/>
     <use xlink:href="#DejaVuSans-2e" x="63.623047"/>
     <use xlink:href="#DejaVuSans-36" x="95.410156"/>
     <use xlink:href="#DejaVuSans-38" x="159.033203"/>
     <use xlink:href="#DejaVuSans-36" x="222.65625"/>
     <use xlink:href="#DejaVuSans-30" x="286.279297"/>
     <use xlink:href="#DejaVuSans-31" x="349.902344"/>
    </g>
   </g>
   <g id="text_18">
    <!-- 0.68804 -->
    <g style="fill: #262626" transform="translate(108.664914 297.688562) scale(0.1 -0.1)">
     <use xlink:href="#DejaVuSans-30"/>
     <use xlink:href="#DejaVuSans-2e" x="63.623047"/>
     <use xlink:href="#DejaVuSans-36" x="95.410156"/>
     <use xlink:href="#DejaVuSans-38" x="159.033203"/>
     <use xlink:href="#DejaVuSans-38" x="222.65625"/>
     <use xlink:href="#DejaVuSans-30" x="286.279297"/>
     <use xlink:href="#DejaVuSans-34" x="349.902344"/>
    </g>
   </g>
   <g id="text_19">
    <!-- 0.68167 -->
    <g style="fill: #262626" transform="translate(150.291672 496.896364) scale(0.1 -0.1)">
     <defs>
      <path id="DejaVuSans-37" d="M 525 4666 
L 3525 4666 
L 3525 4397 
L 1831 0 
L 1172 0 
L 2766 4134 
L 525 4134 
L 525 4666 
z
" transform="scale(0.015625)"/>
     </defs>
     <use xlink:href="#DejaVuSans-30"/>
     <use xlink:href="#DejaVuSans-2e" x="63.623047"/>
     <use xlink:href="#DejaVuSans-36" x="95.410156"/>
     <use xlink:href="#DejaVuSans-38" x="159.033203"/>
     <use xlink:href="#DejaVuSans-31" x="222.65625"/>
     <use xlink:href="#DejaVuSans-36" x="286.279297"/>
     <use xlink:href="#DejaVuSans-37" x="349.902344"/>
    </g>
   </g>
   <g id="text_20">
    <!-- 0.68769 -->
    <g style="fill: #262626" transform="translate(191.918431 308.536721) scale(0.1 -0.1)">
     <use xlink:href="#DejaVuSans-30"/>
     <use xlink:href="#DejaVuSans-2e" x="63.623047"/>
     <use xlink:href="#DejaVuSans-36" x="95.410156"/>
     <use xlink:href="#DejaVuSans-38" x="159.033203"/>
     <use xlink:href="#DejaVuSans-37" x="222.65625"/>
     <use xlink:href="#DejaVuSans-36" x="286.279297"/>
     <use xlink:href="#DejaVuSans-39" x="349.902344"/>
    </g>
   </g>
   <g id="text_21">
    <!-- 0.69408 -->
    <g style="fill: #262626" transform="translate(233.54519 109.020232) scale(0.1 -0.1)">
     <use xlink:href="#DejaVuSans-30"/>
     <use xlink:href="#DejaVuSans-2e" x="63.623047"/>
     <use xlink:href="#DejaVuSans-36" x="95.410156"/>
     <use xlink:href="#DejaVuSans-39" x="159.033203"/>
     <use xlink:href="#DejaVuSans-34" x="222.65625"/>
     <use xlink:href="#DejaVuSans-30" x="286.279297"/>
     <use xlink:href="#DejaVuSans-38" x="349.902344"/>
    </g>
   </g>
   <g id="text_22">
    <!-- 0.69399 -->
    <g style="fill: #262626" transform="translate(275.171949 111.78268) scale(0.1 -0.1)">
     <defs>
      <path id="DejaVuSans-33" d="M 2597 2516 
Q 3050 2419 3304 2112 
Q 3559 1806 3559 1356 
Q 3559 666 3084 287 
Q 2609 -91 1734 -91 
Q 1441 -91 1130 -33 
Q 819 25 488 141 
L 488 750 
Q 750 597 1062 519 
Q 1375 441 1716 441 
Q 2309 441 2620 675 
Q 2931 909 2931 1356 
Q 2931 1769 2642 2001 
Q 2353 2234 1838 2234 
L 1294 2234 
L 1294 2753 
L 1863 2753 
Q 2328 2753 2575 2939 
Q 2822 3125 2822 3475 
Q 2822 3834 2567 4026 
Q 2313 4219 1838 4219 
Q 1578 4219 1281 4162 
Q 984 4106 628 3988 
L 628 4550 
Q 988 4650 1302 4700 
Q 1616 4750 1894 4750 
Q 2613 4750 3031 4423 
Q 3450 4097 3450 3541 
Q 3450 3153 3228 2886 
Q 3006 2619 2597 2516 
z
" transform="scale(0.015625)"/>
     </defs>
     <use xlink:href="#DejaVuSans-30"/>
     <use xlink:href="#DejaVuSans-2e" x="63.623047"/>
     <use xlink:href="#DejaVuSans-36" x="95.410156"/>
     <use xlink:href="#DejaVuSans-39" x="159.033203"/>
     <use xlink:href="#DejaVuSans-33" x="222.65625"/>
     <use xlink:href="#DejaVuSans-39" x="286.279297"/>
     <use xlink:href="#DejaVuSans-39" x="349.902344"/>
    </g>
   </g>
   <g id="text_23">
    <!-- 0.69423 -->
    <g style="fill: #262626" transform="translate(316.798707 104.359147) scale(0.1 -0.1)">
     <use xlink:href="#DejaVuSans-30"/>
     <use xlink:href="#DejaVuSans-2e" x="63.623047"/>
     <use xlink:href="#DejaVuSans-36" x="95.410156"/>
     <use xlink:href="#DejaVuSans-39" x="159.033203"/>
     <use xlink:href="#DejaVuSans-34" x="222.65625"/>
     <use xlink:href="#DejaVuSans-32" x="286.279297"/>
     <use xlink:href="#DejaVuSans-33" x="349.902344"/>
    </g>
   </g>
   <g id="text_24">
    <!-- 0.69628 -->
    <g style="fill: #262626" transform="translate(358.425466 40.423636) scale(0.1 -0.1)">
     <use xlink:href="#DejaVuSans-30"/>
     <use xlink:href="#DejaVuSans-2e" x="63.623047"/>
     <use xlink:href="#DejaVuSans-36" x="95.410156"/>
     <use xlink:href="#DejaVuSans-39" x="159.033203"/>
     <use xlink:href="#DejaVuSans-36" x="222.65625"/>
     <use xlink:href="#DejaVuSans-32" x="286.279297"/>
     <use xlink:href="#DejaVuSans-38" x="349.902344"/>
    </g>
   </g>
   <g id="text_25">
    <!-- 0.68584 -->
    <g style="fill: #262626" transform="translate(400.052225 366.425084) scale(0.1 -0.1)">
     <defs>
      <path id="DejaVuSans-35" d="M 691 4666 
L 3169 4666 
L 3169 4134 
L 1269 4134 
L 1269 2991 
Q 1406 3038 1543 3061 
Q 1681 3084 1819 3084 
Q 2600 3084 3056 2656 
Q 3513 2228 3513 1497 
Q 3513 744 3044 326 
Q 2575 -91 1722 -91 
Q 1428 -91 1123 -41 
Q 819 9 494 109 
L 494 744 
Q 775 591 1075 516 
Q 1375 441 1709 441 
Q 2250 441 2565 725 
Q 2881 1009 2881 1497 
Q 2881 1984 2565 2268 
Q 2250 2553 1709 2553 
Q 1456 2553 1204 2497 
Q 953 2441 691 2322 
L 691 4666 
z
" transform="scale(0.015625)"/>
     </defs>
     <use xlink:href="#DejaVuSans-30"/>
     <use xlink:href="#DejaVuSans-2e" x="63.623047"/>
     <use xlink:href="#DejaVuSans-36" x="95.410156"/>
     <use xlink:href="#DejaVuSans-38" x="159.033203"/>
     <use xlink:href="#DejaVuSans-35" x="222.65625"/>
     <use xlink:href="#DejaVuSans-38" x="286.279297"/>
     <use xlink:href="#DejaVuSans-34" x="349.902344"/>
    </g>
   </g>
   <g id="text_26">
    <!-- 0.68802 -->
    <g style="fill: #262626" transform="translate(441.678984 298.268968) scale(0.1 -0.1)">
     <use xlink:href="#DejaVuSans-30"/>
     <use xlink:href="#DejaVuSans-2e" x="63.623047"/>
     <use xlink:href="#DejaVuSans-36" x="95.410156"/>
     <use xlink:href="#DejaVuSans-38" x="159.033203"/>
     <use xlink:href="#DejaVuSans-38" x="222.65625"/>
     <use xlink:href="#DejaVuSans-30" x="286.279297"/>
     <use xlink:href="#DejaVuSans-32" x="349.902344"/>
    </g>
   </g>
   <g id="text_27">
    <!-- 0.68595 -->
    <g style="fill: #262626" transform="translate(483.305742 363.057813) scale(0.1 -0.1)">
     <use xlink:href="#DejaVuSans-30"/>
     <use xlink:href="#DejaVuSans-2e" x="63.623047"/>
     <use xlink:href="#DejaVuSans-36" x="95.410156"/>
     <use xlink:href="#DejaVuSans-38" x="159.033203"/>
     <use xlink:href="#DejaVuSans-35" x="222.65625"/>
     <use xlink:href="#DejaVuSans-39" x="286.279297"/>
     <use xlink:href="#DejaVuSans-35" x="349.902344"/>
    </g>
   </g>
   <g id="text_28">
    <!-- 0.69146 -->
    <g style="fill: #262626" transform="translate(524.932501 190.910962) scale(0.1 -0.1)">
     <use xlink:href="#DejaVuSans-30"/>
     <use xlink:href="#DejaVuSans-2e" x="63.623047"/>
     <use xlink:href="#DejaVuSans-36" x="95.410156"/>
     <use xlink:href="#DejaVuSans-39" x="159.033203"/>
     <use xlink:href="#DejaVuSans-31" x="222.65625"/>
     <use xlink:href="#DejaVuSans-34" x="286.279297"/>
     <use xlink:href="#DejaVuSans-36" x="349.902344"/>
    </g>
   </g>
   <g id="text_29">
    <!-- R² 值 -->
    <g style="fill: #262626" transform="translate(301.376734 21.6) scale(0.14 -0.14)">
     <use xlink:href="#DroidSansFallback-52"/>
     <use xlink:href="#DroidSansFallback-b2" x="58.984375"/>
     <use xlink:href="#DroidSansFallback-20" x="92.1875"/>
     <use xlink:href="#DroidSansFallback-503c" x="118.359375"/>
    </g>
   </g>
  </g>
  <g id="axes_2">
   <g id="patch_7">
    <path d="M 635.3525 529.72 
L 1139.036281 529.72 
L 1139.036281 27.6 
L 635.3525 27.6 
z
" style="fill: #ffffff"/>
   </g>
   <g id="matplotlib.axis_3">
    <g id="xtick_7">
     <g id="line2d_16">
      <path d="M 699.873976 529.72 
L 699.873976 27.6 
" clip-path="url(#p942f4db248)" style="fill: none; stroke: #cccccc; stroke-width: 0.8; stroke-linecap: round"/>
     </g>
     <g id="text_30">
      <!-- 2 -->
      <g style="fill: #262626" transform="translate(696.692726 544.318437) scale(0.1 -0.1)">
       <use xlink:href="#DejaVuSans-32"/>
      </g>
     </g>
    </g>
    <g id="xtick_8">
     <g id="line2d_17">
      <path d="M 783.127494 529.72 
L 783.127494 27.6 
" clip-path="url(#p942f4db248)" style="fill: none; stroke: #cccccc; stroke-width: 0.8; stroke-linecap: round"/>
     </g>
     <g id="text_31">
      <!-- 4 -->
      <g style="fill: #262626" transform="translate(779.946244 544.318437) scale(0.1 -0.1)">
       <use xlink:href="#DejaVuSans-34"/>
      </g>
     </g>
    </g>
    <g id="xtick_9">
     <g id="line2d_18">
      <path d="M 866.381011 529.72 
L 866.381011 27.6 
" clip-path="url(#p942f4db248)" style="fill: none; stroke: #cccccc; stroke-width: 0.8; stroke-linecap: round"/>
     </g>
     <g id="text_32">
      <!-- 6 -->
      <g style="fill: #262626" transform="translate(863.199761 544.318437) scale(0.1 -0.1)">
       <use xlink:href="#DejaVuSans-36"/>
      </g>
     </g>
    </g>
    <g id="xtick_10">
     <g id="line2d_19">
      <path d="M 949.634529 529.72 
L 949.634529 27.6 
" clip-path="url(#p942f4db248)" style="fill: none; stroke: #cccccc; stroke-width: 0.8; stroke-linecap: round"/>
     </g>
     <g id="text_33">
      <!-- 8 -->
      <g style="fill: #262626" transform="translate(946.453279 544.318437) scale(0.1 -0.1)">
       <use xlink:href="#DejaVuSans-38"/>
      </g>
     </g>
    </g>
    <g id="xtick_11">
     <g id="line2d_20">
      <path d="M 1032.888046 529.72 
L 1032.888046 27.6 
" clip-path="url(#p942f4db248)" style="fill: none; stroke: #cccccc; stroke-width: 0.8; stroke-linecap: round"/>
     </g>
     <g id="text_34">
      <!-- 10 -->
      <g style="fill: #262626" transform="translate(1026.525546 544.318437) scale(0.1 -0.1)">
       <use xlink:href="#DejaVuSans-31"/>
       <use xlink:href="#DejaVuSans-30" x="63.623047"/>
      </g>
     </g>
    </g>
    <g id="xtick_12">
     <g id="line2d_21">
      <path d="M 1116.141564 529.72 
L 1116.141564 27.6 
" clip-path="url(#p942f4db248)" style="fill: none; stroke: #cccccc; stroke-width: 0.8; stroke-linecap: round"/>
     </g>
     <g id="text_35">
      <!-- 12 -->
      <g style="fill: #262626" transform="translate(1109.779064 544.318437) scale(0.1 -0.1)">
       <use xlink:href="#DejaVuSans-31"/>
       <use xlink:href="#DejaVuSans-32" x="63.623047"/>
      </g>
     </g>
    </g>
    <g id="text_36">
     <!-- 组合编号 -->
     <g style="fill: #262626" transform="translate(859.19439 561.062188) scale(0.14 -0.14)">
      <use xlink:href="#DroidSansFallback-7ec4"/>
      <use xlink:href="#DroidSansFallback-5408" x="100"/>
      <use xlink:href="#DroidSansFallback-7f16" x="200"/>
      <use xlink:href="#DroidSansFallback-53f7" x="300"/>
     </g>
    </g>
   </g>
   <g id="matplotlib.axis_4">
    <g id="ytick_9">
     <g id="line2d_22">
      <path d="M 635.3525 480.290852 
L 1139.036281 480.290852 
" clip-path="url(#p942f4db248)" style="fill: none; stroke: #cccccc; stroke-width: 0.8; stroke-linecap: round"/>
     </g>
     <g id="text_37">
      <!-- 0.295 -->
      <g style="fill: #262626" transform="translate(599.724375 484.090071) scale(0.1 -0.1)">
       <use xlink:href="#DejaVuSans-30"/>
       <use xlink:href="#DejaVuSans-2e" x="63.623047"/>
       <use xlink:href="#DejaVuSans-32" x="95.410156"/>
       <use xlink:href="#DejaVuSans-39" x="159.033203"/>
       <use xlink:href="#DejaVuSans-35" x="222.65625"/>
      </g>
     </g>
    </g>
    <g id="ytick_10">
     <g id="line2d_23">
      <path d="M 635.3525 381.492282 
L 1139.036281 381.492282 
" clip-path="url(#p942f4db248)" style="fill: none; stroke: #cccccc; stroke-width: 0.8; stroke-linecap: round"/>
     </g>
     <g id="text_38">
      <!-- 0.300 -->
      <g style="fill: #262626" transform="translate(599.724375 385.291501) scale(0.1 -0.1)">
       <use xlink:href="#DejaVuSans-30"/>
       <use xlink:href="#DejaVuSans-2e" x="63.623047"/>
       <use xlink:href="#DejaVuSans-33" x="95.410156"/>
       <use xlink:href="#DejaVuSans-30" x="159.033203"/>
       <use xlink:href="#DejaVuSans-30" x="222.65625"/>
      </g>
     </g>
    </g>
    <g id="ytick_11">
     <g id="line2d_24">
      <path d="M 635.3525 282.693712 
L 1139.036281 282.693712 
" clip-path="url(#p942f4db248)" style="fill: none; stroke: #cccccc; stroke-width: 0.8; stroke-linecap: round"/>
     </g>
     <g id="text_39">
      <!-- 0.305 -->
      <g style="fill: #262626" transform="translate(599.724375 286.49293) scale(0.1 -0.1)">
       <use xlink:href="#DejaVuSans-30"/>
       <use xlink:href="#DejaVuSans-2e" x="63.623047"/>
       <use xlink:href="#DejaVuSans-33" x="95.410156"/>
       <use xlink:href="#DejaVuSans-30" x="159.033203"/>
       <use xlink:href="#DejaVuSans-35" x="222.65625"/>
      </g>
     </g>
    </g>
    <g id="ytick_12">
     <g id="line2d_25">
      <path d="M 635.3525 183.895141 
L 1139.036281 183.895141 
" clip-path="url(#p942f4db248)" style="fill: none; stroke: #cccccc; stroke-width: 0.8; stroke-linecap: round"/>
     </g>
     <g id="text_40">
      <!-- 0.310 -->
      <g style="fill: #262626" transform="translate(599.724375 187.69436) scale(0.1 -0.1)">
       <use xlink:href="#DejaVuSans-30"/>
       <use xlink:href="#DejaVuSans-2e" x="63.623047"/>
       <use xlink:href="#DejaVuSans-33" x="95.410156"/>
       <use xlink:href="#DejaVuSans-31" x="159.033203"/>
       <use xlink:href="#DejaVuSans-30" x="222.65625"/>
      </g>
     </g>
    </g>
    <g id="ytick_13">
     <g id="line2d_26">
      <path d="M 635.3525 85.096571 
L 1139.036281 85.096571 
" clip-path="url(#p942f4db248)" style="fill: none; stroke: #cccccc; stroke-width: 0.8; stroke-linecap: round"/>
     </g>
     <g id="text_41">
      <!-- 0.315 -->
      <g style="fill: #262626" transform="translate(599.724375 88.89579) scale(0.1 -0.1)">
       <use xlink:href="#DejaVuSans-30"/>
       <use xlink:href="#DejaVuSans-2e" x="63.623047"/>
       <use xlink:href="#DejaVuSans-33" x="95.410156"/>
       <use xlink:href="#DejaVuSans-31" x="159.033203"/>
       <use xlink:href="#DejaVuSans-35" x="222.65625"/>
      </g>
     </g>
    </g>
    <g id="text_42">
     <!-- MAPE 值 -->
     <g style="fill: #262626" transform="translate(592.388438 305.593594) rotate(-90) scale(0.14 -0.14)">
      <defs>
       <path id="DroidSansFallback-4d" d="M 2500 0 
L 1125 4000 
L 1100 4000 
Q 1150 3125 1150 2725 
L 1150 0 
L 625 0 
L 625 4575 
L 1475 4575 
L 2775 850 
L 2800 850 
L 4075 4575 
L 4950 4575 
L 4950 0 
L 4375 0 
L 4375 2775 
Q 4375 3200 4400 4000 
L 4375 4000 
L 3000 0 
L 2500 0 
z
" transform="scale(0.015625)"/>
       <path id="DroidSansFallback-41" d="M 3300 0 
L 2800 1425 
L 1100 1425 
L 600 0 
L 0 0 
L 1675 4600 
L 2200 4600 
L 3900 0 
L 3300 0 
z
M 2625 1925 
L 2150 3250 
Q 2000 3675 1950 3975 
Q 1875 3625 1725 3250 
L 1275 1925 
L 2625 1925 
z
" transform="scale(0.015625)"/>
       <path id="DroidSansFallback-50" d="M 1200 1775 
L 1200 0 
L 625 0 
L 625 4575 
L 1750 4575 
Q 2550 4575 2950 4237 
Q 3350 3900 3350 3225 
Q 3350 2550 2925 2162 
Q 2500 1775 1675 1775 
L 1200 1775 
z
M 1200 2275 
L 1600 2275 
Q 2225 2275 2487 2500 
Q 2750 2725 2750 3200 
Q 2750 3625 2487 3850 
Q 2225 4075 1700 4075 
L 1200 4075 
L 1200 2275 
z
" transform="scale(0.015625)"/>
       <path id="DroidSansFallback-45" d="M 3000 0 
L 625 0 
L 625 4575 
L 3000 4575 
L 3000 4050 
L 1200 4050 
L 1200 2650 
L 2875 2650 
L 2875 2150 
L 1200 2150 
L 1200 525 
L 3000 525 
L 3000 0 
z
" transform="scale(0.015625)"/>
      </defs>
      <use xlink:href="#DroidSansFallback-4d"/>
      <use xlink:href="#DroidSansFallback-41" x="87.109375"/>
      <use xlink:href="#DroidSansFallback-50" x="148.046875"/>
      <use xlink:href="#DroidSansFallback-45" x="205.859375"/>
      <use xlink:href="#DroidSansFallback-20" x="258.59375"/>
      <use xlink:href="#DroidSansFallback-503c" x="284.765625"/>
     </g>
    </g>
   </g>
   <g id="line2d_27">
    <path d="M 658.247217 506.896364 
L 699.873976 444.781913 
L 741.500735 461.588112 
L 783.127494 455.196939 
L 824.754252 233.124144 
L 866.381011 276.799417 
L 908.00777 424.197425 
L 949.634529 357.77881 
L 991.261287 50.423636 
L 1032.888046 337.2167 
L 1074.514805 254.69266 
L 1116.141564 388.558082 
" clip-path="url(#p942f4db248)" style="fill: none; stroke: #008000; stroke-width: 1.5; stroke-linecap: round"/>
    <defs>
     <path id="m66ce96fbea" d="M 0 3 
C 0.795609 3 1.55874 2.683901 2.12132 2.12132 
C 2.683901 1.55874 3 0.795609 3 0 
C 3 -0.795609 2.683901 -1.55874 2.12132 -2.12132 
C 1.55874 -2.683901 0.795609 -3 0 -3 
C -0.795609 -3 -1.55874 -2.683901 -2.12132 -2.12132 
C -2.683901 -1.55874 -3 -0.795609 -3 0 
C -3 0.795609 -2.683901 1.55874 -2.12132 2.12132 
C -1.55874 2.683901 -0.795609 3 0 3 
z
" style="stroke: #008000"/>
    </defs>
    <g clip-path="url(#p942f4db248)">
     <use xlink:href="#m66ce96fbea" x="658.247217" y="506.896364" style="fill: #008000; stroke: #008000"/>
     <use xlink:href="#m66ce96fbea" x="699.873976" y="444.781913" style="fill: #008000; stroke: #008000"/>
     <use xlink:href="#m66ce96fbea" x="741.500735" y="461.588112" style="fill: #008000; stroke: #008000"/>
     <use xlink:href="#m66ce96fbea" x="783.127494" y="455.196939" style="fill: #008000; stroke: #008000"/>
     <use xlink:href="#m66ce96fbea" x="824.754252" y="233.124144" style="fill: #008000; stroke: #008000"/>
     <use xlink:href="#m66ce96fbea" x="866.381011" y="276.799417" style="fill: #008000; stroke: #008000"/>
     <use xlink:href="#m66ce96fbea" x="908.00777" y="424.197425" style="fill: #008000; stroke: #008000"/>
     <use xlink:href="#m66ce96fbea" x="949.634529" y="357.77881" style="fill: #008000; stroke: #008000"/>
     <use xlink:href="#m66ce96fbea" x="991.261287" y="50.423636" style="fill: #008000; stroke: #008000"/>
     <use xlink:href="#m66ce96fbea" x="1032.888046" y="337.2167" style="fill: #008000; stroke: #008000"/>
     <use xlink:href="#m66ce96fbea" x="1074.514805" y="254.69266" style="fill: #008000; stroke: #008000"/>
     <use xlink:href="#m66ce96fbea" x="1116.141564" y="388.558082" style="fill: #008000; stroke: #008000"/>
    </g>
   </g>
   <g id="patch_8">
    <path d="M 635.3525 529.72 
L 635.3525 27.6 
" style="fill: none; stroke: #cccccc; stroke-width: 0.8; stroke-linejoin: miter; stroke-linecap: square"/>
   </g>
   <g id="patch_9">
    <path d="M 1139.036281 529.72 
L 1139.036281 27.6 
" style="fill: none; stroke: #cccccc; stroke-width: 0.8; stroke-linejoin: miter; stroke-linecap: square"/>
   </g>
   <g id="patch_10">
    <path d="M 635.3525 529.72 
L 1139.036281 529.72 
" style="fill: none; stroke: #cccccc; stroke-width: 0.8; stroke-linejoin: miter; stroke-linecap: square"/>
   </g>
   <g id="patch_11">
    <path d="M 635.3525 27.6 
L 1139.036281 27.6 
" style="fill: none; stroke: #cccccc; stroke-width: 0.8; stroke-linejoin: miter; stroke-linecap: square"/>
   </g>
   <g id="text_43">
    <!-- 0.29365 -->
    <g style="fill: #262626" transform="translate(637.570655 496.896364) scale(0.1 -0.1)">
     <use xlink:href="#DejaVuSans-30"/>
     <use xlink:href="#DejaVuSans-2e" x="63.623047"/>
     <use xlink:href="#DejaVuSans-32" x="95.410156"/>
     <use xlink:href="#DejaVuSans-39" x="159.033203"/>
     <use xlink:href="#DejaVuSans-33" x="222.65625"/>
     <use xlink:href="#DejaVuSans-36" x="286.279297"/>
     <use xlink:href="#DejaVuSans-35" x="349.902344"/>
    </g>
   </g>
   <g id="text_44">
    <!-- 0.29680 -->
    <g style="fill: #262626" transform="translate(679.197414 434.781913) scale(0.1 -0.1)">
     <use xlink:href="#DejaVuSans-30"/>
     <use xlink:href="#DejaVuSans-2e" x="63.623047"/>
     <use xlink:href="#DejaVuSans-32" x="95.410156"/>
     <use xlink:href="#DejaVuSans-39" x="159.033203"/>
     <use xlink:href="#DejaVuSans-36" x="222.65625"/>
     <use xlink:href="#DejaVuSans-38" x="286.279297"/>
     <use xlink:href="#DejaVuSans-30" x="349.902344"/>
    </g>
   </g>
   <g id="text_45">
    <!-- 0.29595 -->
    <g style="fill: #262626" transform="translate(720.824172 451.588112) scale(0.1 -0.1)">
     <use xlink:href="#DejaVuSans-30"/>
     <use xlink:href="#DejaVuSans-2e" x="63.623047"/>
     <use xlink:href="#DejaVuSans-32" x="95.410156"/>
     <use xlink:href="#DejaVuSans-39" x="159.033203"/>
     <use xlink:href="#DejaVuSans-35" x="222.65625"/>
     <use xlink:href="#DejaVuSans-39" x="286.279297"/>
     <use xlink:href="#DejaVuSans-35" x="349.902344"/>
    </g>
   </g>
   <g id="text_46">
    <!-- 0.29627 -->
    <g style="fill: #262626" transform="translate(762.450931 445.196939) scale(0.1 -0.1)">
     <use xlink:href="#DejaVuSans-30"/>
     <use xlink:href="#DejaVuSans-2e" x="63.623047"/>
     <use xlink:href="#DejaVuSans-32" x="95.410156"/>
     <use xlink:href="#DejaVuSans-39" x="159.033203"/>
     <use xlink:href="#DejaVuSans-36" x="222.65625"/>
     <use xlink:href="#DejaVuSans-32" x="286.279297"/>
     <use xlink:href="#DejaVuSans-37" x="349.902344"/>
    </g>
   </g>
   <g id="text_47">
    <!-- 0.30751 -->
    <g style="fill: #262626" transform="translate(804.07769 223.124144) scale(0.1 -0.1)">
     <use xlink:href="#DejaVuSans-30"/>
     <use xlink:href="#DejaVuSans-2e" x="63.623047"/>
     <use xlink:href="#DejaVuSans-33" x="95.410156"/>
     <use xlink:href="#DejaVuSans-30" x="159.033203"/>
     <use xlink:href="#DejaVuSans-37" x="222.65625"/>
     <use xlink:href="#DejaVuSans-35" x="286.279297"/>
     <use xlink:href="#DejaVuSans-31" x="349.902344"/>
    </g>
   </g>
   <g id="text_48">
    <!-- 0.30530 -->
    <g style="fill: #262626" transform="translate(845.704449 266.799417) scale(0.1 -0.1)">
     <use xlink:href="#DejaVuSans-30"/>
     <use xlink:href="#DejaVuSans-2e" x="63.623047"/>
     <use xlink:href="#DejaVuSans-33" x="95.410156"/>
     <use xlink:href="#DejaVuSans-30" x="159.033203"/>
     <use xlink:href="#DejaVuSans-35" x="222.65625"/>
     <use xlink:href="#DejaVuSans-33" x="286.279297"/>
     <use xlink:href="#DejaVuSans-30" x="349.902344"/>
    </g>
   </g>
   <g id="text_49">
    <!-- 0.29784 -->
    <g style="fill: #262626" transform="translate(887.331207 414.197425) scale(0.1 -0.1)">
     <use xlink:href="#DejaVuSans-30"/>
     <use xlink:href="#DejaVuSans-2e" x="63.623047"/>
     <use xlink:href="#DejaVuSans-32" x="95.410156"/>
     <use xlink:href="#DejaVuSans-39" x="159.033203"/>
     <use xlink:href="#DejaVuSans-37" x="222.65625"/>
     <use xlink:href="#DejaVuSans-38" x="286.279297"/>
     <use xlink:href="#DejaVuSans-34" x="349.902344"/>
    </g>
   </g>
   <g id="text_50">
    <!-- 0.30120 -->
    <g style="fill: #262626" transform="translate(928.957966 347.77881) scale(0.1 -0.1)">
     <use xlink:href="#DejaVuSans-30"/>
     <use xlink:href="#DejaVuSans-2e" x="63.623047"/>
     <use xlink:href="#DejaVuSans-33" x="95.410156"/>
     <use xlink:href="#DejaVuSans-30" x="159.033203"/>
     <use xlink:href="#DejaVuSans-31" x="222.65625"/>
     <use xlink:href="#DejaVuSans-32" x="286.279297"/>
     <use xlink:href="#DejaVuSans-30" x="349.902344"/>
    </g>
   </g>
   <g id="text_51">
    <!-- 0.31675 -->
    <g style="fill: #262626" transform="translate(970.584725 40.423636) scale(0.1 -0.1)">
     <use xlink:href="#DejaVuSans-30"/>
     <use xlink:href="#DejaVuSans-2e" x="63.623047"/>
     <use xlink:href="#DejaVuSans-33" x="95.410156"/>
     <use xlink:href="#DejaVuSans-31" x="159.033203"/>
     <use xlink:href="#DejaVuSans-36" x="222.65625"/>
     <use xlink:href="#DejaVuSans-37" x="286.279297"/>
     <use xlink:href="#DejaVuSans-35" x="349.902344"/>
    </g>
   </g>
   <g id="text_52">
    <!-- 0.30224 -->
    <g style="fill: #262626" transform="translate(1012.211484 327.2167) scale(0.1 -0.1)">
     <use xlink:href="#DejaVuSans-30"/>
     <use xlink:href="#DejaVuSans-2e" x="63.623047"/>
     <use xlink:href="#DejaVuSans-33" x="95.410156"/>
     <use xlink:href="#DejaVuSans-30" x="159.033203"/>
     <use xlink:href="#DejaVuSans-32" x="222.65625"/>
     <use xlink:href="#DejaVuSans-32" x="286.279297"/>
     <use xlink:href="#DejaVuSans-34" x="349.902344"/>
    </g>
   </g>
   <g id="text_53">
    <!-- 0.30642 -->
    <g style="fill: #262626" transform="translate(1053.838242 244.69266) scale(0.1 -0.1)">
     <use xlink:href="#DejaVuSans-30"/>
     <use xlink:href="#DejaVuSans-2e" x="63.623047"/>
     <use xlink:href="#DejaVuSans-33" x="95.410156"/>
     <use xlink:href="#DejaVuSans-30" x="159.033203"/>
     <use xlink:href="#DejaVuSans-36" x="222.65625"/>
     <use xlink:href="#DejaVuSans-34" x="286.279297"/>
     <use xlink:href="#DejaVuSans-32" x="349.902344"/>
    </g>
   </g>
   <g id="text_54">
    <!-- 0.29964 -->
    <g style="fill: #262626" transform="translate(1095.465001 378.558082) scale(0.1 -0.1)">
     <use xlink:href="#DejaVuSans-30"/>
     <use xlink:href="#DejaVuSans-2e" x="63.623047"/>
     <use xlink:href="#DejaVuSans-32" x="95.410156"/>
     <use xlink:href="#DejaVuSans-39" x="159.033203"/>
     <use xlink:href="#DejaVuSans-39" x="222.65625"/>
     <use xlink:href="#DejaVuSans-36" x="286.279297"/>
     <use xlink:href="#DejaVuSans-34" x="349.902344"/>
    </g>
   </g>
   <g id="text_55">
    <!-- MAPE 值 -->
    <g style="fill: #262626" transform="translate(860.260797 21.6) scale(0.14 -0.14)">
     <use xlink:href="#DroidSansFallback-4d"/>
     <use xlink:href="#DroidSansFallback-41" x="87.109375"/>
     <use xlink:href="#DroidSansFallback-50" x="148.046875"/>
     <use xlink:href="#DroidSansFallback-45" x="205.859375"/>
     <use xlink:href="#DroidSansFallback-20" x="258.59375"/>
     <use xlink:href="#DroidSansFallback-503c" x="284.765625"/>
    </g>
   </g>
  </g>
 </g>
 <defs>
  <clipPath id="p274e038186">
   <rect x="64.82" y="27.6" width="503.683781" height="502.12"/>
  </clipPath>
  <clipPath id="p942f4db248">
   <rect x="635.3525" y="27.6" width="503.683781" height="502.12"/>
  </clipPath>
 </defs>
</svg>
